# AST/ASF file generated using VICON BodyLanguage
# -----------------------------------------------
:version 1.10
:name VICON
:units
  mass 1.0
  length 0.45
  angle deg
:documentation
   .ast/.asf automatically generated from VICON data using
   VICON BodyBuilder and BodyLanguage model FoxedUp or BRILLIANT.MOD
:root
   order TX TY TZ RX RY RZ
   axis XYZ
   position 0 0 0  
   orientation 0 0 0 
:bonedata
  begin
     id 1 
     name lhipjoint
     direction 0.661853 -0.702389 0.261917 
     length 2.64193 
     axis 0 0 0  XYZ
  end
  begin
     id 2 
     name lfemur
     direction 0.34202 -0.939693 0  
     length 7.01722  
     axis 0 0 20  XYZ
    dof rx ry rz
    limits (-160.0 20.0)
           (-70.0 70.0)
           (-60.0 70.0)
  end
  begin
     id 3 
     name ltibia
     direction 0.34202 -0.939693 0   
     length 8.25008   
     axis 0 0 20   XYZ
    dof rx
    limits (-10.0 170.0)
  end
  begin
     id 4 
     name lfoot
     direction 0.0709916 -0.195048 0.978221   
     length 2.31941   
     axis -90 7.62852e-016 20   XYZ
    dof rx rz
    limits (-45.0 90.0)
           (-70.0 20.0)
  end
  begin
     id 5 
     name ltoes
     direction 1.53586e-011 -4.22017e-011 1   
     length 1.16486   
     axis -90 7.62852e-016 20   XYZ
    dof rx
    limits (-90.0 20.0)
  end
  begin
     id 6 
     name rhipjoint
     direction -0.638185 -0.721362 0.268992   
     length 2.57244  
     axis 0 0 0  XYZ 
  end
  begin
     id 7 
     name rfemur
     direction -0.34202 -0.939693 0   
     length 7.07017   
     axis 0 0 -20   XYZ
    dof rx ry rz
    limits (-160.0 20.0)
           (-70.0 70.0)
           (-70.0 60.0)
  end
  begin
     id 8 
     name rtibia
     direction -0.34202 -0.939693 0   
     length 8.20386   
     axis 0 0 -20   XYZ
    dof rx
    limits (-10.0 170.0)
 end
 begin
     id 9 
     name rfoot
     direction -0.0822429 -0.225961 0.970658   
     length 2.32215  
     axis -90 -7.62852e-016 -20   XYZ
    dof rx rz
    limits (-45.0 90.0)
           (-20.0 70.0)
  end
  begin
     id 10 
     name rtoes
     direction -1.53597e-011 -4.21689e-011 1   
     length 1.16333   
     axis -90 -7.62852e-016 -20   XYZ
    dof rx
    limits (-90.0 20.0)
  end
  begin
     id 11 
     name lowerback
     direction -0.0131557 0.998589 -0.0514484   
     length 2.14993   
     axis 0 0 0   XYZ
    dof rx ry rz
    limits (-20.0 45.0)
           (-30.0 30.0)
           (-30.0 30.0)
  end
  begin
     id 12 
     name upperback
     direction -0.000776481 0.999993 0.00352685   
     length 2.15301   
     axis 0 0 0   XYZ
    dof rx ry rz
    limits (-20.0 45.0)
           (-30.0 30.0)
           (-30.0 30.0)
  end
  begin
     id 13 
     name thorax
     direction 0.00438186 0.999609 0.0276143   
     length 2.15424   
     axis 0 0 0   XYZ
    dof rx ry rz
    limits (-20.0 45.0)
           (-30.0 30.0)
           (-30.0 30.0)
  end
  begin
     id 14 
     name lowerneck
     direction -0.0488006 0.998094 0.0377807   
     length 1.90481   
     axis 0 0 0   XYZ
    dof rx ry rz
    limits (-20.0 45.0)
           (-30.0 30.0)
           (-30.0 30.0)
  end
  begin
     id 15 
     name upperneck
     direction 0.0443769 0.990702 -0.12861   
     length 1.91305   
     axis 0 0 0   XYZ
    dof rx ry rz
    limits (-20.0 45.0)
           (-30.0 30.0)
           (-30.0 30.0)
  end
  begin
     id 16
     name head
     direction 0.0165599 0.998647 -0.0492982  
     length 1.92369  
     axis 0 0 0   XYZ
    dof rx ry rz
    limits (-20.0 45.0)
           (-30.0 30.0)
           (-30.0 30.0)
  end
  begin
     id 17 
     name lclavicle
     direction 0.911936 0.410197 -0.0105506  
     length 3.52622  
     axis 0 0 0   XYZ
    dof ry rz
    limits (-20.0 10.0)
           (0.0 20.0)
  end
  begin
     id 18 
     name lhumerus
     direction 1 -4.48974e-011 -2.48591e-028   
     length 5.47651   
     axis 180 -30 -90   XYZ
    dof rx ry rz
    limits (-60.0 90.0)
           (-90.0 90.0)
           (-90.0 90.0)
  end
  begin
     id 19
     name lradius
     direction 1 -4.48938e-011 -4.40099e-027   
     length 3.09058   
     axis 180 -30 -90   XYZ
    dof rx
    limits (-10.0 170.0)
  end
  begin
     id 20
     name lwrist
     direction 1 -4.49042e-011 -2.99852e-027   
     length 1.54529   
     axis 1.95339e-015 90 90   XYZ
    dof ry
    limits (-180.0 0.0)
 end
  begin
     id 21 
     name lhand
     direction 1 -4.48815e-011 -5.98193e-027   
     length 0.771611   
     axis 3.82337e-015 90 90   XYZ
    dof rx rz
    limits (-90.0 90.0)
           (-45.0 45.0)
  end
  begin
     id 22 
     name lfingers
     direction 1 -4.49034e-011 -1.1993e-026   
     length 0.622093   
     axis 7.64668e-015 90 90   XYZ
    dof rx
    limits (0.0 90.0)
  end
  begin
     id 23
     name lthumb
     direction 0.707107 -6.34867e-011 0.707107   
     length 0.893204   
     axis -90 45 -1.62303e-014   XYZ
    dof rx rz
    limits (-45.0 45.0)
           (-45.0 45.0)
  end
  begin
     id 24 
     name rclavicle
     direction -0.93442 0.355634 -0.0195692   
     length 3.62463  
     axis 0 0 0   XYZ 
    dof ry rz
    limits (-10.0 20.0)
           (-20.0 0.0)
  end
  begin
     id 25 
     name rhumerus
     direction -1 -4.48957e-011 -1.19147e-027  
     length 5.14182   
     axis 180 30 90   XYZ
    dof rx ry rz
    limits (-90.0 60.0)
           (-90.0 90.0)
           (-90.0 90.0)
  end
  begin
     id 26 
     name rradius
     direction -1 -4.48952e-011 -3.81062e-027   
     length 3.35565   
     axis 180 30 90   XYZ
    dof rx
    limits (-10.0 170.0)
  end
  begin
     id 27 
     name rwrist
     direction -1 -4.48973e-011 -2.99621e-027   
     length 1.67782   
     axis 1.95339e-015 -90 -90   XYZ
    dof ry
    limits (-180.0 0.0)
  end
  begin
     id 28
     name rhand
     direction -1 -4.48895e-011 -5.98727e-027   
     length 0.801042   
     axis 3.82337e-015 -90 -90   XYZ
    dof rx rz
    limits (-90.0 90.0)
           (-45.0 45.0)
  end
  begin
     id 29
     name rfingers
     direction -1 -4.49065e-011 -1.19972e-026   
     length 0.645821   
     axis 7.64668e-015 -90 -90   XYZ
    dof rx
    limits (0.0 90.0)
  end
  begin
     id 30
     name rthumb
     direction -0.707107 -6.34957e-011 0.707107   
     length 0.927273   
     axis -90 -45 1.62303e-014   XYZ
    dof rx rz
    limits (-45.0 45.0)
           (-45.0 45.0)
  end
:hierarchy
  begin
    root lhipjoint rhipjoint lowerback
    lhipjoint lfemur
    lfemur ltibia
    ltibia lfoot
    lfoot ltoes
    rhipjoint rfemur
    rfemur rtibia
    rtibia rfoot
    rfoot rtoes
    lowerback upperback
    upperback thorax
    thorax lowerneck lclavicle rclavicle
    lowerneck upperneck
    upperneck head
    lclavicle lhumerus
    lhumerus lradius
    lradius lwrist
    lwrist lhand lthumb
    lhand lfingers
    rclavicle rhumerus
    rhumerus rradius
    rradius rwrist
    rwrist rhand rthumb
    rhand rfingers
  end

#!OML:ASF E:\Style4\Style4.ASF
:FULLY-SPECIFIED
:DEGREES
1
root 0.0745924 18.0914 -1.23614 1.58387 -3.19859 1.39819
lowerback 2.93164 2.72697 -0.123566
upperback 0.792071 3.62911 -0.0924576
thorax -0.830359 1.81347 -0.155886
lowerneck -2.49127 -4.79113 -6.20153
upperneck 7.4815 -6.35142 3.49193
head 3.21286 -3.21454 1.99502
rclavicle -1.80397e-014 -4.37326e-015
rhumerus 10.4407 18.4625 -52.3374
rradius 105.572
rwrist -32.97
rhand -24.9117 30.9234
rfingers 7.12502
rthumb 1.59685 0.949674
lclavicle -1.80397e-014 -4.37326e-015
lhumerus -15.164 -41.5787 88.8463
lradius 106.677
lwrist 12.6865
lhand -30.8802 11.3845
lfingers 7.12502
lthumb -4.16748 41.3234
rfemur -8.82265 7.56319 16.7907
rtibia 21.5612
rfoot -13.4259 -13.4776
rtoes -11.3398
lfemur -7.03458 -3.09268 -20.5882
ltibia 20.1908
lfoot -15.3498 12.6044
ltoes -15.6901
2
root 0.071217 18.0926 -1.23399 1.643 -3.17667 1.39762
lowerback 2.95047 2.73047 -0.127951
upperback 0.763086 3.63323 -0.125841
thorax -0.868673 1.8155 -0.189588
lowerneck -2.4652 -4.79649 -6.257
upperneck 7.40589 -6.36419 3.59989
head 3.19029 -3.21878 2.04157
rclavicle -5.46658e-015 -2.18663e-015
rhumerus 8.81451 19.0811 -53.4921
rradius 105.889
rwrist -32.487
rhand -24.3627 30.9063
rfingers 7.12502
rthumb 2.12711 0.937192
lclavicle -5.46658e-015 -2.18663e-015
lhumerus -16.0968 -41.5201 89.0136
lradius 106.77
lwrist 12.78
lhand -30.3819 11.9898
lfingers 7.12502
lthumb -3.68629 41.9376
rfemur -8.88219 7.54146 16.7938
rtibia 21.5716
rfoot -13.3903 -13.536
rtoes -11.2339
lfemur -7.07246 -3.11547 -20.5676
ltibia 20.1495
lfoot -15.3037 12.6109
ltoes -15.7234
3
root 0.0689749 18.0931 -1.23117 1.68577 -3.1386 1.42371
lowerback 3.01583 2.72428 -0.129259
upperback 0.706065 3.62412 -0.181225
thorax -0.96013 1.81081 -0.250346
lowerneck -2.48654 -4.80281 -6.40974
upperneck 7.44442 -6.38023 3.80783
head 3.2256 -3.22456 2.1379
rclavicle -4.65902e-015 2.78299e-015
rhumerus 7.00511 19.7041 -54.7842
rradius 106.17
rwrist -31.9692
rhand -24.2296 31.2978
rfingers 7.12502
rthumb 2.25562 1.32995
lclavicle -4.65902e-015 2.78299e-015
lhumerus -17.0876 -41.4888 89.1721
lradius 106.821
lwrist 13.0567
lhand -29.7683 12.4086
lfingers 7.12502
lthumb -3.09372 42.3659
rfemur -8.90813 7.44923 16.7648
rtibia 21.5669
rfoot -13.3789 -13.5334
rtoes -11.1571
lfemur -7.09649 -3.12211 -20.5907
ltibia 20.1313
lfoot -15.265 12.5953
ltoes -15.8191
4
root 0.0666718 18.0948 -1.22772 1.71931 -3.10261 1.4234
lowerback 3.26017 2.70212 -0.059753
upperback 0.53565 3.59479 -0.273182
thorax -1.26124 1.79523 -0.400087
lowerneck -2.49239 -4.8028 -6.48166
upperneck 7.65679 -6.39232 3.95566
head 3.31132 -3.22927 2.19954
rclavicle 2.72211e-014 -1.27222e-014
rhumerus 4.88914 20.4142 -56.2556
rradius 106.509
rwrist -31.4078
rhand -24.0262 31.441
rfingers 7.12502
rthumb 2.45203 1.47535
lclavicle 2.72211e-014 -1.27222e-014
lhumerus -18.3108 -41.415 89.3805
lradius 106.824
lwrist 13.4076
lhand -29.0742 12.3738
lfingers 7.12502
lthumb -2.42337 42.3398
rfemur -8.91499 7.389 16.7668
rtibia 21.5556
rfoot -13.423 -13.4619
rtoes -11.2574
lfemur -7.11484 -3.1422 -20.5798
ltibia 20.1166
lfoot -15.2814 12.553
ltoes -15.606
5
root 0.0619751 18.0949 -1.22502 1.75531 -3.09443 1.36656
lowerback 2.13019 2.83552 -0.405371
upperback 1.2684 3.77172 0.083305
thorax 0.0754128 1.8833 0.234692
lowerneck -2.64119 -4.96703 -6.8575
upperneck 7.03248 -6.56659 3.9256
head 3.15149 -3.32101 2.2486
rclavicle 2.45996e-015 -7.95139e-015
rhumerus 3.94401 20.4527 -56.4427
rradius 106.805
rwrist -31.1869
rhand -24.1687 31.2599
rfingers 7.12502
rthumb 2.31441 1.29275
lclavicle 2.45996e-015 -7.95139e-015
lhumerus -17.7581 -41.1875 89.3196
lradius 106.592
lwrist 13.9062
lhand -28.003 12.1345
lfingers 7.12502
lthumb -1.38882 42.1097
rfemur -8.93802 7.35355 16.8446
rtibia 21.5514
rfoot -13.4161 -13.4262
rtoes -11.3526
lfemur -7.14016 -3.14082 -20.4961
ltibia 20.1134
lfoot -15.2607 12.581
ltoes -16.0018
6
root 0.0567638 18.0948 -1.22038 1.78211 -3.12852 1.33447
lowerback 3.00447 2.80094 -0.256716
upperback 0.719555 3.72316 -0.106991
thorax -0.952741 1.86056 -0.106596
lowerneck -2.54983 -4.89373 -6.64641
upperneck 7.44192 -6.49586 3.94252
head 3.26155 -3.28366 2.21969
rclavicle 2.01518e-014 9.34288e-015
rhumerus 1.34005 21.4489 -58.2868
rradius 107.167
rwrist -31.008
rhand -24.3382 31.2369
rfingers 7.12502
rthumb 2.15073 1.26803
lclavicle 2.01518e-014 9.34288e-015
lhumerus -19.6911 -40.8839 89.725
lradius 106.674
lwrist 14.5259
lhand -26.5645 11.9092
lfingers 7.12502
lthumb 0.000515649 41.889
rfemur -8.95644 7.36531 16.8955
rtibia 21.5549
rfoot -13.4498 -13.4058
rtoes -11.0557
lfemur -7.14227 -3.13238 -20.44
ltibia 20.1105
lfoot -15.3158 12.5881
ltoes -16.0085
7
root 0.0523404 18.0944 -1.21611 1.81477 -3.14247 1.33162
lowerback 3.31459 2.7999 -0.221467
upperback 0.558151 3.72028 -0.1927
thorax -1.28353 1.8586 -0.235786
lowerneck -2.59086 -4.88689 -6.4895
upperneck 7.50124 -6.49181 3.91287
head 3.28058 -3.27813 2.18033
rclavicle -1.90088e-015 7.35503e-015
rhumerus -0.761465 22.0727 -59.7279
rradius 107.386
rwrist -30.9112
rhand -24.374 31.5404
rfingers 7.12502
rthumb 2.11611 1.57115
lclavicle -1.90088e-015 7.35503e-015
lhumerus -20.9051 -40.6772 89.9161
lradius 106.628
lwrist 14.9218
lhand -25.5344 11.9774
lfingers 7.12502
lthumb 0.995483 41.9548
rfemur -8.98677 7.34695 16.91
rtibia 21.5687
rfoot -13.4887 -13.3501
rtoes -11.0005
lfemur -7.16167 -3.15087 -20.4226
ltibia 20.1182
lfoot -15.3653 12.5885
ltoes -15.8945
8
root 0.04818 18.0935 -1.21398 1.84124 -3.11739 1.39072
lowerback 3.2992 2.80063 -0.312873
upperback 0.608732 3.71795 -0.210079
thorax -1.22773 1.8578 -0.200154
lowerneck -2.65824 -4.8989 -6.47656
upperneck 7.3916 -6.50304 3.92448
head 3.25612 -3.28154 2.18041
rclavicle 6.42944e-014 -5.1684e-015
rhumerus -2.47569 22.5028 -60.9534
rradius 107.421
rwrist -30.9517
rhand -24.3816 31.9511
rfingers 7.12502
rthumb 2.10881 1.98179
lclavicle 6.42944e-014 -5.1684e-015
lhumerus -21.8359 -40.5204 90.0818
lradius 106.523
lwrist 14.9787
lhand -24.8174 12.1637
lfingers 7.12502
lthumb 1.68793 42.1368
rfemur -9.035 7.3362 16.8582
rtibia 21.6137
rfoot -13.4765 -13.4178
rtoes -11.2724
lfemur -7.18419 -3.14152 -20.4719
ltibia 20.11
lfoot -15.332 12.5752
ltoes -16.0031
